<svg width="664" height="269" viewBox="0 0 664 269" fill="none" xmlns="http://www.w3.org/2000/svg">
<path d="M354.371 112.905V23.7998H372.441L398.114 93.8377H398.363L424.16 23.7998H442.23V112.905H428.771V43.7394H428.522L403.971 112.905H392.63L368.08 43.7394H367.83V112.905H354.371Z" fill="black"/>
<path d="M484.597 114.774C464.408 114.774 453.192 100.443 453.192 81.0016C453.192 61.062 465.156 47.3535 484.597 47.3535C503.913 47.3535 514.756 60.065 514.756 79.7554C514.756 81.5001 514.756 83.3694 514.631 84.3664H465.779C466.028 94.9593 472.259 104.805 484.846 104.805C496.062 104.805 500.424 97.5764 501.546 93.3392H514.008C510.643 105.552 501.296 114.774 484.597 114.774ZM465.779 74.7704H502.044C502.044 64.8006 495.065 57.3233 484.223 57.3233C474.004 57.3233 466.527 64.3022 465.779 74.7704Z" fill="black"/>
<path d="M545.035 113.653C534.567 113.653 528.211 109.665 528.211 94.9593V59.4419H518.989V49.3474H528.211V28.9093H540.424V49.3474H552.637V59.4419H540.424V95.3332C540.424 102.063 542.293 103.558 547.527 103.558C549.646 103.558 550.643 103.434 552.762 103.06V112.905C549.646 113.528 547.652 113.653 545.035 113.653Z" fill="black"/>
<path d="M575.013 80.0046V112.905H562.799V49.3474H575.013V61.4358H575.262C578.627 53.46 583.736 47.852 592.335 47.852C594.578 47.852 596.323 47.9766 598.192 48.2258V59.9404C596.697 59.6911 595.575 59.5665 594.08 59.5665C582.988 59.5665 575.013 67.9162 575.013 80.0046Z" fill="black"/>
<path d="M631.862 114.774C612.047 114.774 600.083 101.066 600.083 81.1262C600.083 61.3112 612.047 47.3535 631.986 47.3535C651.677 47.3535 663.641 61.1866 663.641 81.0016C663.641 100.941 651.677 114.774 631.862 114.774ZM612.795 81.1262C612.795 94.3362 618.776 104.68 631.986 104.68C644.947 104.68 650.929 94.3362 650.929 81.1262C650.929 67.7916 644.947 57.5725 631.986 57.5725C618.776 57.5725 612.795 67.7916 612.795 81.1262Z" fill="black"/>
<path d="M288.011 134.38C287.922 147.208 287.833 160.035 287.833 172.876C287.833 177.362 287.871 181.862 287.922 186.386C287.985 195.22 288.074 204.358 287.833 213.331C287.061 243.562 264.615 266.791 234.306 268.56C233.8 268.623 233.256 268.648 232.812 268.661C232.382 268.661 231.977 268.661 231.546 268.623L231.306 268.598L231.205 268.623L230.901 268.598C215.417 268.092 201.479 261.23 191.426 249.236C196.604 242.399 200.301 234.374 202.2 225.539C203.884 230.557 206.353 235.043 209.834 238.645C215.392 244.383 223.115 247.29 232.863 247.29C257.626 246.506 266.438 225.855 266.438 206.835V152.87C266.438 142.279 266.526 131.65 266.59 121.034C266.742 100.092 266.893 78.4684 266.438 57.1856C266.197 45.47 260.386 34.6011 250.866 28.105C242.181 22.1651 231.47 20.8507 221.507 24.4779C206.669 29.8617 199.136 42.8159 199.136 63.0118V169.982C199.136 173.356 199.01 177.223 198.858 181.293C198.478 191.454 198.06 202.917 199.478 213.419H199.326C198.579 243.65 176.108 266.879 145.799 268.648C145.28 268.712 144.749 268.737 144.306 268.75C143.875 268.724 143.445 268.75 143.039 268.712L142.824 268.686L142.698 268.712L142.419 268.686C113.149 267.701 89.8923 243.22 89.2719 212.8C89.4618 210.879 89.5505 208.958 89.5505 207.037V153.084C89.5505 142.468 89.6391 131.84 89.7024 121.236C89.8543 100.295 90.0062 78.6706 89.5505 57.4004C89.3099 45.6595 83.4989 34.7906 73.9785 28.3072C65.2937 22.3673 54.5832 21.0276 44.6197 24.6801C29.782 30.0639 22.2492 43.0181 22.2492 63.214V170.184C22.2492 173.558 22.1226 177.426 21.9707 181.495C21.2491 201.223 20.3502 225.792 32.947 238.835C38.5048 244.573 46.2275 247.479 55.9758 247.479C72.6745 246.949 82.1063 237.381 86.4867 225.388C88.4364 234.247 92.1964 242.361 97.4124 249.274C87.4869 260.914 73.3582 267.827 57.4064 268.75C56.8873 268.813 56.3556 268.838 55.9125 268.851C55.4821 268.851 55.0769 268.851 54.6465 268.813L54.406 268.787L54.3047 268.813L54.0008 268.787C24.5534 267.802 1.19545 242.993 0.853628 212.32C0.727027 200.326 0.765007 188.092 0.815648 176.263C0.840968 170.247 0.853628 164.219 0.853628 158.228C0.853628 146.854 0.638406 135.189 0.410524 123.941C0.00539993 100.787 -0.475685 76.8254 1.00555 53.5837C1.96772 38.0387 9.57646 23.5047 21.8948 13.6595C34.0485 3.96601 49.6837 -0.217248 64.7746 2.19665C91.1836 6.40518 110.073 28.8633 110.946 56.9707C110.908 57.1477 110.908 57.312 110.883 57.5015H110.971V57.7164C111.49 83.2962 111.313 109.381 111.149 134.595C111.06 147.423 110.971 160.25 110.971 173.091C110.971 177.577 111.009 182.102 111.06 186.601C111.123 195.435 111.212 204.573 110.971 213.546L113.111 213.609L111.085 213.887C114.212 236.446 125.087 247.429 144.419 247.404C163.435 246.784 175.893 233.678 177.754 212.332L175.614 212.156L177.779 212.118C177.652 200.124 177.69 187.903 177.741 176.086C177.766 170.07 177.779 164.042 177.779 158.026C177.779 146.664 177.564 135.012 177.336 123.764C176.893 100.585 176.412 76.6232 177.893 53.3815C178.855 37.8365 186.489 23.3025 198.782 13.4573C210.923 3.76379 226.558 -0.41946 241.687 1.99444C268.311 6.24089 287.302 29.0655 287.859 57.5268C288.378 83.1066 288.2 109.192 288.036 134.405L288.011 134.38Z" fill="#211815"/>
<path d="M185.555 19.2062C180.339 26.0182 176.642 33.8539 174.718 42.1825C171.869 35.5222 167.058 29.7971 160.905 25.9803C152.347 20.6596 142.358 19.6612 132.787 23.162C123.318 26.5996 116.81 33.1335 113.367 42.6501C111.379 33.9424 107.695 25.9803 102.656 19.2062C115.202 4.79864 134.319 -2.30405 152.917 0.665937C165.894 2.73861 177.148 9.14619 185.555 19.2189V19.2062Z" fill="#211815"/>
<path d="M631.938 225.629C612.171 225.629 600.236 211.954 600.236 192.062C600.236 172.294 612.171 158.37 632.063 158.37C651.706 158.37 663.641 172.17 663.641 191.937C663.641 211.829 651.706 225.629 631.938 225.629ZM612.917 192.062C612.917 205.24 618.884 215.559 632.063 215.559C644.992 215.559 650.96 205.24 650.96 192.062C650.96 178.759 644.992 168.565 632.063 168.565C618.884 168.565 612.917 178.759 612.917 192.062Z" fill="black"/>
<path d="M378.117 255.522C373.393 255.522 369.083 255.025 365.187 254.03C361.375 253.036 357.769 251.461 354.371 249.306L360.09 239.236C362.991 240.728 365.892 241.888 368.793 242.717C371.694 243.628 374.802 244.084 378.117 244.084C383.504 244.084 387.648 242.634 390.549 239.733C393.533 236.915 395.025 233.102 395.025 228.295V225.684H382.841C373.973 225.684 367.135 223.239 362.328 218.349C357.521 213.459 355.117 206.373 355.117 197.09C355.117 190.377 356.609 184.658 359.593 179.933C362.659 175.126 366.886 171.438 372.274 168.869C377.661 166.299 383.919 165.015 391.047 165.015H408.203V227.798C408.203 236.583 405.551 243.38 400.246 248.187C395.025 253.077 387.648 255.522 378.117 255.522ZM395.025 214.247V176.452H390.052C383.421 176.452 378.241 178.234 374.512 181.798C370.782 185.362 368.917 190.377 368.917 196.841C368.917 202.809 370.16 207.202 372.647 210.02C375.216 212.838 379.111 214.247 384.333 214.247H395.025Z" fill="black"/>
<path d="M519.14 148.371C516.985 148.371 515.203 147.708 513.794 146.382C512.385 145.056 511.681 143.067 511.681 140.415C511.681 137.68 512.385 135.69 513.794 134.447C515.203 133.121 516.985 132.458 519.14 132.458C521.461 132.458 523.284 133.163 524.611 134.571C525.854 135.898 526.475 137.845 526.475 140.415C526.475 142.901 525.812 144.849 524.486 146.258C523.16 147.667 521.378 148.371 519.14 148.371ZM540.524 148.371C538.203 148.371 536.38 147.667 535.054 146.258C533.728 144.849 533.065 142.901 533.065 140.415C533.065 137.845 533.728 135.898 535.054 134.571C536.38 133.163 538.203 132.458 540.524 132.458C542.845 132.458 544.627 133.163 545.87 134.571C547.196 135.98 547.859 137.928 547.859 140.415C547.859 142.818 547.196 144.766 545.87 146.258C544.627 147.667 542.845 148.371 540.524 148.371Z" fill="black"/>
<path d="M507.23 226.329C506.815 226.329 506.608 226.122 506.608 225.708V215.389C506.608 215.057 506.815 214.892 507.23 214.892H527.68V165.66H540.673V214.892H559.321C559.735 214.892 559.943 215.057 559.943 215.389V225.708C559.943 226.122 559.735 226.329 559.321 226.329H507.23Z" fill="black"/>
<path d="M442.111 225.685V228.295C442.111 233.931 441.158 238.78 439.252 242.841C437.428 246.902 434.776 250.01 431.295 252.165C427.814 254.403 423.587 255.522 418.614 255.522C415.879 255.522 413.227 255.149 410.657 254.403C408.088 253.74 405.394 252.58 402.576 250.922L407.176 241.349C409.248 242.427 410.989 243.131 412.398 243.463C413.89 243.794 415.506 243.96 417.246 243.96C420.893 243.96 423.753 242.51 425.825 239.609C427.897 236.791 428.933 233.061 428.933 228.42V165.015H442.111V214.247H457.776C458.19 214.247 458.397 214.413 458.397 214.744V225.063C458.397 225.477 458.19 225.685 457.776 225.685H442.111Z" fill="black"/>
<rect x="457.615" y="214.245" width="167.163" height="11.3856" fill="black"/>
<rect width="7.27852" height="3.46972" transform="matrix(-1 0 0 1 632.061 222.161)" fill="black"/>
</svg>
