<svg width="843" height="612" viewBox="0 0 843 612" fill="none" xmlns="http://www.w3.org/2000/svg">
<path d="M450.055 147.089C444.991 75.3811 399.969 16.0238 341.535 6.53788C285.492 -2.57234 230.81 36.874 209.331 100.833C197.888 134.832 199.811 170.757 199.811 206.634V349.345C199.811 384.612 197.841 420.865 200.327 456.132C205.814 533.851 258.808 596.73 322.823 598.232C323.573 598.279 324.37 598.279 325.168 598.279C326.387 598.233 327.606 598.186 328.779 598.045C385.243 593.912 436.127 546.624 447.711 476.653C452.869 445.519 450.571 411.849 450.571 380.292C450.571 303.371 455.449 223.868 450.055 147.089ZM325.168 529.248C285.868 529.248 257.213 489.661 256.088 443.124C255.478 418.893 256.088 394.567 256.088 370.383C256.088 301.587 255.478 232.744 256.088 163.947C256.416 123.656 274.659 87.2619 307.862 76.649C350.211 63.1715 391.34 102.101 394.201 154.837C397.483 215.462 394.294 277.637 394.294 338.31C394.294 408.515 409.114 525.82 325.168 529.201V529.248Z" fill="white" stroke="#005FC4" stroke-width="10" stroke-miterlimit="10"/>
<path d="M394.574 462.389C399.639 535.083 444.66 595.286 503.094 604.912C559.137 614.117 613.819 574.154 635.298 509.302C646.741 474.834 644.818 438.44 644.818 402.046V257.362C644.818 221.626 646.788 184.856 644.302 149.12C638.815 70.3212 585.821 6.54968 521.806 5.04696C521.056 5 520.259 5 519.461 5C518.242 5.04696 517.023 5.09392 515.85 5.2348C459.386 9.41423 408.502 57.3603 396.918 128.317C391.76 159.874 394.058 194.014 394.058 226.04C394.058 304.041 389.18 384.624 394.574 462.483V462.389ZM519.461 74.9702C558.761 74.9702 587.416 115.121 588.541 162.316C589.151 186.876 588.541 211.53 588.541 236.043C588.541 305.825 589.151 375.56 588.541 445.343C588.213 486.198 569.97 523.108 536.767 533.815C494.418 547.481 453.289 508.034 450.428 454.547C447.146 393.076 450.335 330.056 450.335 268.539C450.335 197.395 435.515 78.4453 519.461 74.9702Z" fill="white" stroke="#005FC4" stroke-width="10" stroke-miterlimit="10"/>
<path d="M802.288 48.3861C745.589 -11.9574 642.743 1.33228 602.411 73.4157C592.094 91.9179 589.514 110.561 586.466 130.613C583.699 148.927 582.48 167.617 566.394 179.78C550.168 192.13 526.203 188.561 507.022 188.561H363.891C362.765 188.561 361.64 188.561 360.468 188.608C322.152 189.172 258.653 198.658 256.215 144.607C256.215 143.151 256.027 141.789 255.699 140.474C256.168 138.455 256.308 136.295 256.215 133.994C254.057 66.7004 202.47 10.8182 134.047 8.56411C69.1877 6.40395 13.1453 57.4963 6.29825 121.362C3.95338 143.574 5.501 166.584 5.501 188.89V442.849C5.501 472.856 3.95338 502.065 16.4281 530.335C41.6589 587.626 109.05 619.23 169.032 599.272C199.75 589.035 226.2 567.293 241.442 538.553C255.605 512.068 251.712 484.033 260.998 456.984C273.848 419.416 325.248 425.333 360.092 426.836C363.844 427.024 367.455 427.118 370.738 427.118H489.482C506.787 427.118 524.421 426.084 541.726 427.118C578.494 429.325 584.543 456.608 586.466 487.038C591.531 568.279 674.727 627.12 752.624 599.178C810.214 578.516 837.039 525.921 837.039 467.55V171.797C837.039 126.574 835.82 84.0286 802.288 48.3861ZM753.796 535.548C728.143 555.365 691.938 554.097 667.224 533.576C639.366 510.471 646.776 481.638 640.351 450.691C631.3 406.972 593.079 374.429 548.854 371.094C531.971 369.78 514.713 370.766 497.783 370.766H360.092V370.437C342.412 370.437 324.685 370.578 307.004 370.766C257.481 371.376 212.647 403.074 204.112 453.885C200.125 477.224 200.876 502.206 185.681 521.93C171.424 540.479 147.741 550.81 124.527 548.697C46.9114 541.7 61.7779 448.249 61.7779 394.199V167.899C61.7779 140.287 58.8703 112.486 78.0044 89.5229C119.509 39.8864 197.968 71.7721 199.938 133.994C200.031 135.403 200.125 136.718 200.407 137.986C200.031 140.005 199.891 142.259 199.938 144.607C202.095 191.191 232.578 233.361 279.757 242.753C298.891 246.557 319.432 244.913 338.754 244.913H481.369C526.625 245.336 575.774 250.501 610.759 215.469C636.881 189.313 637.819 157.38 643.353 123.616C648.746 90.6969 678.479 65.7612 711.635 65.7612C744.792 65.7612 774.525 90.7439 779.918 123.616C781.559 133.571 780.762 144.372 780.762 154.422V437.543C780.762 472.763 785.499 511.082 753.796 535.548Z" fill="white" stroke="#005FC4" stroke-width="10" stroke-miterlimit="10"/>
<path d="M363.873 188.568C362.747 188.568 361.622 188.568 360.449 188.615L363.873 188.568Z" fill="white" stroke="#005FC4" stroke-width="10" stroke-miterlimit="10"/>
<path d="M360.09 426.837C363.842 427.025 367.453 427.119 370.736 427.119H360.09V426.837Z" fill="white" stroke="#005FC4" stroke-width="10" stroke-miterlimit="10"/>
</svg>
